<svg width="11" height="14" viewBox="0 0 11 14" fill="none" xmlns="http://www.w3.org/2000/svg">
<path d="M5.29029 7.71946C5.09134 7.71713 4.89645 7.77581 4.73186 7.8876C4.56726 7.99938 4.44087 8.15891 4.36968 8.3447C4.2985 8.5305 4.28594 8.73364 4.3337 8.92679C4.38146 9.11993 4.48724 9.29381 4.63681 9.42502V10.3333C4.63681 10.5067 4.70566 10.6729 4.82821 10.7954C4.95076 10.918 5.11697 10.9868 5.29029 10.9868C5.4636 10.9868 5.62981 10.918 5.75236 10.7954C5.87491 10.6729 5.94376 10.5067 5.94376 10.3333V9.42502C6.09333 9.29381 6.19912 9.11993 6.24687 8.92679C6.29463 8.73364 6.28208 8.5305 6.21089 8.3447C6.13971 8.15891 6.01331 7.99938 5.84872 7.8876C5.68412 7.77581 5.48924 7.71713 5.29029 7.71946ZM8.55765 5.10556V3.79862C8.55765 2.93206 8.21341 2.10099 7.60066 1.48824C6.98791 0.875489 6.15685 0.53125 5.29029 0.53125C4.42373 0.53125 3.59266 0.875489 2.97991 1.48824C2.36716 2.10099 2.02292 2.93206 2.02292 3.79862V5.10556C1.50298 5.10556 1.00434 5.31211 0.636694 5.67976C0.269044 6.04741 0.0625 6.54605 0.0625 7.06598V11.6403C0.0625 12.1602 0.269044 12.6589 0.636694 13.0265C1.00434 13.3942 1.50298 13.6007 2.02292 13.6007H8.55765C9.07759 13.6007 9.57623 13.3942 9.94388 13.0265C10.3115 12.6589 10.5181 12.1602 10.5181 11.6403V7.06598C10.5181 6.54605 10.3115 6.04741 9.94388 5.67976C9.57623 5.31211 9.07759 5.10556 8.55765 5.10556ZM3.32987 3.79862C3.32987 3.27868 3.53641 2.78004 3.90406 2.41239C4.27171 2.04474 4.77035 1.8382 5.29029 1.8382C5.81022 1.8382 6.30886 2.04474 6.67651 2.41239C7.04416 2.78004 7.25071 3.27868 7.25071 3.79862V5.10556H3.32987V3.79862ZM9.21113 11.6403C9.21113 11.8136 9.14228 11.9798 9.01973 12.1024C8.89718 12.2249 8.73096 12.2938 8.55765 12.2938H2.02292C1.84961 12.2938 1.68339 12.2249 1.56084 12.1024C1.43829 11.9798 1.36945 11.8136 1.36945 11.6403V7.06598C1.36945 6.89267 1.43829 6.72646 1.56084 6.60391C1.68339 6.48136 1.84961 6.41251 2.02292 6.41251H8.55765C8.73096 6.41251 8.89718 6.48136 9.01973 6.60391C9.14228 6.72646 9.21113 6.89267 9.21113 7.06598V11.6403Z" fill="#FF8227"/>
</svg>
