<svg width="40" height="40" viewBox="0 0 40 40" fill="none" xmlns="http://www.w3.org/2000/svg">
<path d="M35 13.75V34.0625L25 37.1875L15 34.0625L5 37.1875V16.5625L15 13.625" fill="#E5E5E5"/>
<path d="M15 13.625V34.0625L25 37.1875V13.6875L15 13.625Z" fill="#B7B7B7"/>
<path d="M25 25.0625C25 25.0625 33.5 19.3125 33.5 11C33.5 6.3125 29.6875 2.5 25 2.5C20.3125 2.5 16.5 6.3125 16.5 11C16.5 17.25 20.8125 21.4375 23.3125 23.625L25 25.0625Z" fill="#FFD766"/>
<path d="M27.9375 7.06251C27.5625 7.31251 26.9375 7.75001 26.25 8.31251L20.875 7.50001L20.5 8.43751L24.375 9.81251C23.25 10.75 21.875 11.875 21.875 11.875L20.6875 11L20.125 11.5L21.8125 13.1875C21.8125 13.1875 28.3125 8.81251 29.375 8.00001C30.4375 7.31251 29.125 6.31251 27.9375 7.06251Z" fill="#4B687F"/>
<path d="M27.9375 7.06251C27.5625 7.31251 26.9375 7.75001 26.25 8.31251L20.875 7.50001L20.5 8.43751L24.375 9.81251C23.25 10.75 21.875 11.875 21.875 11.875L20.6875 11L20.125 11.5L21.8125 13.1875C21.8125 13.1875 28.3125 8.81251 29.375 8.00001C30.4375 7.31251 29.125 6.31251 27.9375 7.06251Z" stroke="#2C3E50" stroke-width="1.25" stroke-miterlimit="10" stroke-linecap="round" stroke-linejoin="round"/>
<path d="M20.625 15H26.875" stroke="#2C3E50" stroke-width="1.25" stroke-miterlimit="10" stroke-linecap="round" stroke-linejoin="round"/>
<path d="M15 16.25V31.875" stroke="#2C3E50" stroke-width="1.25" stroke-miterlimit="10" stroke-linecap="round" stroke-linejoin="round"/>
<path d="M25 35V26.25" stroke="#2C3E50" stroke-width="1.25" stroke-miterlimit="10" stroke-linecap="round" stroke-linejoin="round"/>
<path d="M35 13.75V34.0625L25 37.1875L15 34.0625L5 37.1875V16.5625L15 13.625" stroke="#2C3E50" stroke-width="1.25" stroke-miterlimit="10" stroke-linecap="round" stroke-linejoin="round"/>
<path d="M25 25.0625C25 25.0625 33.5 19.3125 33.5 11C33.5 6.3125 29.6875 2.5 25 2.5C20.3125 2.5 16.5 6.3125 16.5 11C16.5 17.25 20.8125 21.4375 23.3125 23.625L25 25.0625Z" stroke="#2C3E50" stroke-width="1.25" stroke-miterlimit="10" stroke-linecap="round" stroke-linejoin="round"/>
</svg>
