<svg width="36" height="24" viewBox="0 0 36 24" fill="none" xmlns="http://www.w3.org/2000/svg">
<path d="M1.48616 14.9184L7.02333 20.7793C7.76108 21.5602 8.70221 22.0516 9.70698 22.1807C10.7118 22.3097 11.7266 22.0695 12.6008 21.4956L34.8415 6.89654L32.1035 3.11833C31.3932 2.13815 30.3959 1.47708 29.2916 1.2545C28.1874 1.03191 27.049 1.2625 26.0822 1.90461L19.5646 6.23315L10.7511 2.91622L8.32751 4.08892C8.1462 4.17666 7.98736 4.31451 7.86564 4.48979C7.74392 4.66506 7.66325 4.87211 7.63105 5.09185C7.59885 5.31159 7.61616 5.53694 7.68139 5.74713C7.74662 5.95733 7.85767 6.1456 8.0043 6.2946L12.5138 10.8769L8.40081 13.5304L4.28782 11.5402L1.82697 12.731C1.64751 12.8178 1.49005 12.9538 1.3688 13.1265C1.24755 13.2993 1.16634 13.5035 1.13252 13.7206C1.09869 13.9377 1.11331 14.1609 1.17505 14.37C1.2368 14.5792 1.34372 14.7676 1.48616 14.9184V14.9184Z" stroke="black" stroke-width="1.70585" stroke-linecap="round" stroke-linejoin="round"/>
</svg>
